<svg version="1.1" xmlns="http://www.w3.org/2000/svg" xmlns:xlink="http://www.w3.org/1999/xlink" width="551.7744140625" height="219"><defs/><g><text fill="#eeeeee" stroke="none" font-family="Arial" font-size="24px" font-style="normal" font-weight="normal" text-decoration="none" x="0" y="0"></text><text fill="#eeeeee" stroke="none" font-family="Arial" font-size="24px" font-style="normal" font-weight="normal" text-decoration="none" x="0" y="30"></text><text fill="#eeeeee" stroke="none" font-family="Arial" font-size="24px" font-style="normal" font-weight="normal" text-decoration="none" x="0" y="60"></text><text fill="#eeeeee" stroke="none" font-family="Arial" font-size="24px" font-style="normal" font-weight="normal" text-decoration="none" x="0" y="90"></text><text fill="#eeeeee" stroke="none" font-family="Arial" font-size="24px" font-style="normal" font-weight="normal" text-decoration="none" x="0" y="120"></text><text fill="#eeeeee" stroke="none" font-family="Arial" font-size="24px" font-style="normal" font-weight="normal" text-decoration="none" x="0" y="150"></text><text fill="#eeeeee" stroke="none" font-family="Arial" font-size="24px" font-style="normal" font-weight="normal" text-decoration="none" x="0" y="180"></text><text fill="#eeeeee" stroke="none" font-family="Arial" font-size="24px" font-style="normal" font-weight="normal" text-decoration="none" x="0" y="210"></text><text fill="#eeeeee" stroke="none" font-family="Arial" font-size="24px" font-style="normal" font-weight="normal" text-decoration="none" x="200" y="0"></text><text fill="#eeeeee" stroke="none" font-family="Arial" font-size="24px" font-style="normal" font-weight="normal" text-decoration="none" x="200" y="30"></text><text fill="#eeeeee" stroke="none" font-family="Arial" font-size="24px" font-style="normal" font-weight="normal" text-decoration="none" x="200" y="60"></text><text fill="#eeeeee" stroke="none" font-family="Arial" font-size="24px" font-style="normal" font-weight="normal" text-decoration="none" x="200" y="90"></text><text fill="#eeeeee" stroke="none" font-family="Arial" font-size="24px" font-style="normal" font-weight="normal" text-decoration="none" x="200" y="120"></text><text fill="#eeeeee" stroke="none" font-family="Arial" font-size="24px" font-style="normal" font-weight="normal" text-decoration="none" x="200" y="150"></text><text fill="#eeeeee" stroke="none" font-family="Arial" font-size="24px" font-style="normal" font-weight="normal" text-decoration="none" x="200" y="180"></text><text fill="#eeeeee" stroke="none" font-family="Arial" font-size="24px" font-style="normal" font-weight="normal" text-decoration="none" x="200" y="210"></text><text fill="#eeeeee" stroke="none" font-family="Arial" font-size="24px" font-style="normal" font-weight="normal" text-decoration="none" x="400" y="0"></text><text fill="#eeeeee" stroke="none" font-family="Arial" font-size="24px" font-style="normal" font-weight="normal" text-decoration="none" x="400" y="30"></text><text fill="#eeeeee" stroke="none" font-family="Arial" font-size="24px" font-style="normal" font-weight="normal" text-decoration="none" x="400" y="60"></text><text fill="#eeeeee" stroke="none" font-family="Arial" font-size="24px" font-style="normal" font-weight="normal" text-decoration="none" x="400" y="90"></text><text fill="#eeeeee" stroke="none" font-family="Arial" font-size="24px" font-style="normal" font-weight="normal" text-decoration="none" x="400" y="120"></text><text fill="#eeeeee" stroke="none" font-family="Arial" font-size="24px" font-style="normal" font-weight="normal" text-decoration="none" x="400" y="150"></text><text fill="#eeeeee" stroke="none" font-family="Arial" font-size="24px" font-style="normal" font-weight="normal" text-decoration="none" x="400" y="180"></text><text fill="#eeeeee" stroke="none" font-family="Arial" font-size="24px" font-style="normal" font-weight="normal" text-decoration="none" x="400" y="210"></text><g transform="translate(-102,-30) scale(1,1)"><rect fill="#C0C0C0" stroke="none" x="119" y="47" width="80.4326171875" height="39" opacity="0.2"/></g><g transform="translate(-102,-30) scale(1,1)"><rect fill="#ffffff" stroke="none" x="112" y="40" width="80.4326171875" height="39"/></g><g transform="translate(-102,-30) scale(1,1)"><path fill="none" stroke="#000000" d="M 112 40 L 192.4326171875 40 L 192.4326171875 79 L 112 79 L 112 40 Z Z" stroke-miterlimit="10"/></g><g transform="translate(-102,-30) scale(1,1)"><g><path fill="none" stroke="none"/><text fill="#000000" stroke="none" font-family="Arial" font-size="13px" font-style="normal" font-weight="bold" text-decoration="none" x="121.5" y="58">User click</text></g></g><g transform="translate(-102,-30) scale(1,1)"><path fill="none" stroke="#000000" d="M 153.5 80 L 153.5 239" stroke-miterlimit="10" stroke-dasharray="3"/></g><g transform="translate(-102,-30) scale(1,1)"><rect fill="#C0C0C0" stroke="none" x="295" y="47" width="112" height="39" opacity="0.2"/></g><g transform="translate(-102,-30) scale(1,1)"><rect fill="#ffffff" stroke="none" x="288" y="40" width="112" height="39"/></g><g transform="translate(-102,-30) scale(1,1)"><path fill="none" stroke="#000000" d="M 288 40 L 400 40 L 400 79 L 288 79 L 288 40 Z Z" stroke-miterlimit="10"/></g><g transform="translate(-102,-30) scale(1,1)"><g><path fill="none" stroke="none"/><text fill="#000000" stroke="none" font-family="Arial" font-size="13px" font-style="normal" font-weight="bold" text-decoration="none" x="301.378662109375" y="58">InventoryItem</text></g></g><g transform="translate(-102,-30) scale(1,1)"><path fill="none" stroke="#000000" d="M 345.5 80 L 345.5 239" stroke-miterlimit="10" stroke-dasharray="3"/></g><g transform="translate(-102,-30) scale(1,1)"><rect fill="#C0C0C0" stroke="none" x="527" y="47" width="123.7744140625" height="39" opacity="0.2"/></g><g transform="translate(-102,-30) scale(1,1)"><rect fill="#ffffff" stroke="none" x="520" y="40" width="123.7744140625" height="39"/></g><g transform="translate(-102,-30) scale(1,1)"><path fill="none" stroke="#000000" d="M 520 40 L 643.7744140625 40 L 643.7744140625 79 L 520 79 L 520 40 Z Z" stroke-miterlimit="10"/></g><g transform="translate(-102,-30) scale(1,1)"><g><path fill="none" stroke="none"/><text fill="#000000" stroke="none" font-family="Arial" font-size="13px" font-style="normal" font-weight="bold" text-decoration="none" x="529.5" y="58">InventoryService</text></g></g><g transform="translate(-102,-30) scale(1,1)"><path fill="none" stroke="#000000" d="M 582.5 80 L 582.5 239" stroke-miterlimit="10" stroke-dasharray="3"/></g><g transform="translate(-102,-30) scale(1,1)"><path fill="none" stroke="#000000" d="M 153 104 L 338 104" stroke-miterlimit="10"/></g><g transform="translate(-102,-30) scale(1,1)"><path fill="#000000" stroke="none" d="M 327.83732514237585 108.20951775601598 L 338 104 L 327.83732514237585 99.79048224398402"/></g><g transform="translate(-102,-30) scale(1,1)"><path fill="none" stroke="#000000" d="M 327.83732514237585 108.20951775601598 L 338 104 L 327.83732514237585 99.79048224398402 L 327.83732514237585 108.20951775601598" stroke-miterlimit="10"/></g><g transform="translate(-102,-30) scale(1,1)"><g><path fill="none" stroke="none"/><text fill="#000000" stroke="none" font-family="Arial" font-size="13px" font-style="normal" font-weight="normal" text-decoration="none" x="212.736328125" y="99">1 : OnClick</text></g></g><g transform="translate(-102,-30) scale(1,1)"><rect fill="#ffffff" stroke="none" x="338" y="104" width="13" height="28"/></g><g transform="translate(-102,-30) scale(1,1)"><path fill="none" stroke="#000000" d="M 338 104 L 351 104 L 351 132 L 338 132 L 338 104 Z Z" stroke-miterlimit="10"/></g><g transform="translate(-102,-30) scale(1,1)"><path fill="none" stroke="#000000" d="M 351 112 L 381 112 L 381 132 L 358 132" stroke-miterlimit="10"/></g><g transform="translate(-102,-30) scale(1,1)"><path fill="#000000" stroke="none" d="M 368.16267485762415 127.79048224398402 L 358 132 L 368.16267485762415 136.209517756016"/></g><g transform="translate(-102,-30) scale(1,1)"><path fill="none" stroke="#000000" d="M 368.16267485762415 127.79048224398402 L 358 132 L 368.16267485762415 136.209517756016 L 368.16267485762415 127.79048224398402" stroke-miterlimit="10"/></g><g transform="translate(-102,-30) scale(1,1)"><g><path fill="none" stroke="none"/><text fill="#000000" stroke="none" font-family="Arial" font-size="13px" font-style="normal" font-weight="normal" text-decoration="none" x="389.7236328125" y="123">2 : div nb 2</text></g></g><g transform="translate(-102,-30) scale(1,1)"><rect fill="#ffffff" stroke="none" x="345" y="132" width="13" height="28"/></g><g transform="translate(-102,-30) scale(1,1)"><path fill="none" stroke="#000000" d="M 345 132 L 358 132 L 358 160 L 345 160 L 345 132 Z Z" stroke-miterlimit="10"/></g><g transform="translate(-102,-30) scale(1,1)"><path fill="none" stroke="#000000" d="M 358 152 L 575 152" stroke-miterlimit="10"/></g><g transform="translate(-102,-30) scale(1,1)"><path fill="#000000" stroke="none" d="M 564.8373251423759 156.209517756016 L 575 152 L 564.8373251423758 147.790482243984"/></g><g transform="translate(-102,-30) scale(1,1)"><path fill="none" stroke="#000000" d="M 564.8373251423759 156.209517756016 L 575 152 L 564.8373251423758 147.790482243984 L 564.8373251423759 156.209517756016" stroke-miterlimit="10"/></g><g transform="translate(-102,-30) scale(1,1)"><g><path fill="none" stroke="none"/><text fill="#000000" stroke="none" font-family="Arial" font-size="13px" font-style="normal" font-weight="normal" text-decoration="none" x="423.5" y="147">3 : UpdateItem</text></g></g><g transform="translate(-102,-30) scale(1,1)"><rect fill="#ffffff" stroke="none" x="575" y="152" width="13" height="28"/></g><g transform="translate(-102,-30) scale(1,1)"><path fill="none" stroke="#000000" d="M 575 152 L 588 152 L 588 180 L 575 180 L 575 152 Z Z" stroke-miterlimit="10"/></g><g transform="translate(-102,-30) scale(1,1)"><path fill="none" stroke="#000000" d="M 582 184 L 159 184" stroke-miterlimit="10"/></g><g transform="translate(-102,-30) scale(1,1)"><path fill="#000000" stroke="none" d="M 169.16267485762415 179.790482243984 L 159 184 L 169.16267485762415 188.209517756016"/></g><g transform="translate(-102,-30) scale(1,1)"><path fill="none" stroke="#000000" d="M 169.16267485762415 179.790482243984 L 159 184 L 169.16267485762415 188.209517756016 L 169.16267485762415 179.790482243984" stroke-miterlimit="10"/></g><g transform="translate(-102,-30) scale(1,1)"><g><path fill="none" stroke="none"/><text fill="#000000" stroke="none" font-family="Arial" font-size="13px" font-style="normal" font-weight="normal" text-decoration="none" x="301.5" y="199">4 : Changement affiché</text></g></g><g transform="translate(-102,-30) scale(1,1)"><rect fill="#ffffff" stroke="none" x="146" y="184" width="13" height="28"/></g><g transform="translate(-102,-30) scale(1,1)"><path fill="none" stroke="#000000" d="M 146 184 L 159 184 L 159 212 L 146 212 L 146 184 Z Z" stroke-miterlimit="10"/></g></g></svg>