<svg version="1.1" xmlns="http://www.w3.org/2000/svg" xmlns:xlink="http://www.w3.org/1999/xlink" width="895.7744140625" height="406"><defs/><g><text fill="#eeeeee" stroke="none" font-family="Arial" font-size="24px" font-style="normal" font-weight="normal" text-decoration="none" x="0" y="0"></text><text fill="#eeeeee" stroke="none" font-family="Arial" font-size="24px" font-style="normal" font-weight="normal" text-decoration="none" x="0" y="30"></text><text fill="#eeeeee" stroke="none" font-family="Arial" font-size="24px" font-style="normal" font-weight="normal" text-decoration="none" x="0" y="60"></text><text fill="#eeeeee" stroke="none" font-family="Arial" font-size="24px" font-style="normal" font-weight="normal" text-decoration="none" x="0" y="90"></text><text fill="#eeeeee" stroke="none" font-family="Arial" font-size="24px" font-style="normal" font-weight="normal" text-decoration="none" x="0" y="120"></text><text fill="#eeeeee" stroke="none" font-family="Arial" font-size="24px" font-style="normal" font-weight="normal" text-decoration="none" x="0" y="150"></text><text fill="#eeeeee" stroke="none" font-family="Arial" font-size="24px" font-style="normal" font-weight="normal" text-decoration="none" x="0" y="180"></text><text fill="#eeeeee" stroke="none" font-family="Arial" font-size="24px" font-style="normal" font-weight="normal" text-decoration="none" x="0" y="210"></text><text fill="#eeeeee" stroke="none" font-family="Arial" font-size="24px" font-style="normal" font-weight="normal" text-decoration="none" x="0" y="240"></text><text fill="#eeeeee" stroke="none" font-family="Arial" font-size="24px" font-style="normal" font-weight="normal" text-decoration="none" x="0" y="270"></text><text fill="#eeeeee" stroke="none" font-family="Arial" font-size="24px" font-style="normal" font-weight="normal" text-decoration="none" x="0" y="300"></text><text fill="#eeeeee" stroke="none" font-family="Arial" font-size="24px" font-style="normal" font-weight="normal" text-decoration="none" x="0" y="330"></text><text fill="#eeeeee" stroke="none" font-family="Arial" font-size="24px" font-style="normal" font-weight="normal" text-decoration="none" x="0" y="360"></text><text fill="#eeeeee" stroke="none" font-family="Arial" font-size="24px" font-style="normal" font-weight="normal" text-decoration="none" x="0" y="390"></text><text fill="#eeeeee" stroke="none" font-family="Arial" font-size="24px" font-style="normal" font-weight="normal" text-decoration="none" x="200" y="0"></text><text fill="#eeeeee" stroke="none" font-family="Arial" font-size="24px" font-style="normal" font-weight="normal" text-decoration="none" x="200" y="30"></text><text fill="#eeeeee" stroke="none" font-family="Arial" font-size="24px" font-style="normal" font-weight="normal" text-decoration="none" x="200" y="60"></text><text fill="#eeeeee" stroke="none" font-family="Arial" font-size="24px" font-style="normal" font-weight="normal" text-decoration="none" x="200" y="90"></text><text fill="#eeeeee" stroke="none" font-family="Arial" font-size="24px" font-style="normal" font-weight="normal" text-decoration="none" x="200" y="120"></text><text fill="#eeeeee" stroke="none" font-family="Arial" font-size="24px" font-style="normal" font-weight="normal" text-decoration="none" x="200" y="150"></text><text fill="#eeeeee" stroke="none" font-family="Arial" font-size="24px" font-style="normal" font-weight="normal" text-decoration="none" x="200" y="180"></text><text fill="#eeeeee" stroke="none" font-family="Arial" font-size="24px" font-style="normal" font-weight="normal" text-decoration="none" x="200" y="210"></text><text fill="#eeeeee" stroke="none" font-family="Arial" font-size="24px" font-style="normal" font-weight="normal" text-decoration="none" x="200" y="240"></text><text fill="#eeeeee" stroke="none" font-family="Arial" font-size="24px" font-style="normal" font-weight="normal" text-decoration="none" x="200" y="270"></text><text fill="#eeeeee" stroke="none" font-family="Arial" font-size="24px" font-style="normal" font-weight="normal" text-decoration="none" x="200" y="300"></text><text fill="#eeeeee" stroke="none" font-family="Arial" font-size="24px" font-style="normal" font-weight="normal" text-decoration="none" x="200" y="330"></text><text fill="#eeeeee" stroke="none" font-family="Arial" font-size="24px" font-style="normal" font-weight="normal" text-decoration="none" x="200" y="360"></text><text fill="#eeeeee" stroke="none" font-family="Arial" font-size="24px" font-style="normal" font-weight="normal" text-decoration="none" x="200" y="390"></text><text fill="#eeeeee" stroke="none" font-family="Arial" font-size="24px" font-style="normal" font-weight="normal" text-decoration="none" x="400" y="0"></text><text fill="#eeeeee" stroke="none" font-family="Arial" font-size="24px" font-style="normal" font-weight="normal" text-decoration="none" x="400" y="30"></text><text fill="#eeeeee" stroke="none" font-family="Arial" font-size="24px" font-style="normal" font-weight="normal" text-decoration="none" x="400" y="60"></text><text fill="#eeeeee" stroke="none" font-family="Arial" font-size="24px" font-style="normal" font-weight="normal" text-decoration="none" x="400" y="90"></text><text fill="#eeeeee" stroke="none" font-family="Arial" font-size="24px" font-style="normal" font-weight="normal" text-decoration="none" x="400" y="120"></text><text fill="#eeeeee" stroke="none" font-family="Arial" font-size="24px" font-style="normal" font-weight="normal" text-decoration="none" x="400" y="150"></text><text fill="#eeeeee" stroke="none" font-family="Arial" font-size="24px" font-style="normal" font-weight="normal" text-decoration="none" x="400" y="180"></text><text fill="#eeeeee" stroke="none" font-family="Arial" font-size="24px" font-style="normal" font-weight="normal" text-decoration="none" x="400" y="210"></text><text fill="#eeeeee" stroke="none" font-family="Arial" font-size="24px" font-style="normal" font-weight="normal" text-decoration="none" x="400" y="240"></text><text fill="#eeeeee" stroke="none" font-family="Arial" font-size="24px" font-style="normal" font-weight="normal" text-decoration="none" x="400" y="270"></text><text fill="#eeeeee" stroke="none" font-family="Arial" font-size="24px" font-style="normal" font-weight="normal" text-decoration="none" x="400" y="300"></text><text fill="#eeeeee" stroke="none" font-family="Arial" font-size="24px" font-style="normal" font-weight="normal" text-decoration="none" x="400" y="330"></text><text fill="#eeeeee" stroke="none" font-family="Arial" font-size="24px" font-style="normal" font-weight="normal" text-decoration="none" x="400" y="360"></text><text fill="#eeeeee" stroke="none" font-family="Arial" font-size="24px" font-style="normal" font-weight="normal" text-decoration="none" x="400" y="390"></text><text fill="#eeeeee" stroke="none" font-family="Arial" font-size="24px" font-style="normal" font-weight="normal" text-decoration="none" x="600" y="0"></text><text fill="#eeeeee" stroke="none" font-family="Arial" font-size="24px" font-style="normal" font-weight="normal" text-decoration="none" x="600" y="30"></text><text fill="#eeeeee" stroke="none" font-family="Arial" font-size="24px" font-style="normal" font-weight="normal" text-decoration="none" x="600" y="60"></text><text fill="#eeeeee" stroke="none" font-family="Arial" font-size="24px" font-style="normal" font-weight="normal" text-decoration="none" x="600" y="90"></text><text fill="#eeeeee" stroke="none" font-family="Arial" font-size="24px" font-style="normal" font-weight="normal" text-decoration="none" x="600" y="120"></text><text fill="#eeeeee" stroke="none" font-family="Arial" font-size="24px" font-style="normal" font-weight="normal" text-decoration="none" x="600" y="150"></text><text fill="#eeeeee" stroke="none" font-family="Arial" font-size="24px" font-style="normal" font-weight="normal" text-decoration="none" x="600" y="180"></text><text fill="#eeeeee" stroke="none" font-family="Arial" font-size="24px" font-style="normal" font-weight="normal" text-decoration="none" x="600" y="210"></text><text fill="#eeeeee" stroke="none" font-family="Arial" font-size="24px" font-style="normal" font-weight="normal" text-decoration="none" x="600" y="240"></text><text fill="#eeeeee" stroke="none" font-family="Arial" font-size="24px" font-style="normal" font-weight="normal" text-decoration="none" x="600" y="270"></text><text fill="#eeeeee" stroke="none" font-family="Arial" font-size="24px" font-style="normal" font-weight="normal" text-decoration="none" x="600" y="300"></text><text fill="#eeeeee" stroke="none" font-family="Arial" font-size="24px" font-style="normal" font-weight="normal" text-decoration="none" x="600" y="330"></text><text fill="#eeeeee" stroke="none" font-family="Arial" font-size="24px" font-style="normal" font-weight="normal" text-decoration="none" x="600" y="360"></text><text fill="#eeeeee" stroke="none" font-family="Arial" font-size="24px" font-style="normal" font-weight="normal" text-decoration="none" x="600" y="390"></text><text fill="#eeeeee" stroke="none" font-family="Arial" font-size="24px" font-style="normal" font-weight="normal" text-decoration="none" x="800" y="0"></text><text fill="#eeeeee" stroke="none" font-family="Arial" font-size="24px" font-style="normal" font-weight="normal" text-decoration="none" x="800" y="30"></text><text fill="#eeeeee" stroke="none" font-family="Arial" font-size="24px" font-style="normal" font-weight="normal" text-decoration="none" x="800" y="60"></text><text fill="#eeeeee" stroke="none" font-family="Arial" font-size="24px" font-style="normal" font-weight="normal" text-decoration="none" x="800" y="90"></text><text fill="#eeeeee" stroke="none" font-family="Arial" font-size="24px" font-style="normal" font-weight="normal" text-decoration="none" x="800" y="120"></text><text fill="#eeeeee" stroke="none" font-family="Arial" font-size="24px" font-style="normal" font-weight="normal" text-decoration="none" x="800" y="150"></text><text fill="#eeeeee" stroke="none" font-family="Arial" font-size="24px" font-style="normal" font-weight="normal" text-decoration="none" x="800" y="180"></text><text fill="#eeeeee" stroke="none" font-family="Arial" font-size="24px" font-style="normal" font-weight="normal" text-decoration="none" x="800" y="210"></text><text fill="#eeeeee" stroke="none" font-family="Arial" font-size="24px" font-style="normal" font-weight="normal" text-decoration="none" x="800" y="240"></text><text fill="#eeeeee" stroke="none" font-family="Arial" font-size="24px" font-style="normal" font-weight="normal" text-decoration="none" x="800" y="270"></text><text fill="#eeeeee" stroke="none" font-family="Arial" font-size="24px" font-style="normal" font-weight="normal" text-decoration="none" x="800" y="300"></text><text fill="#eeeeee" stroke="none" font-family="Arial" font-size="24px" font-style="normal" font-weight="normal" text-decoration="none" x="800" y="330"></text><text fill="#eeeeee" stroke="none" font-family="Arial" font-size="24px" font-style="normal" font-weight="normal" text-decoration="none" x="800" y="360"></text><text fill="#eeeeee" stroke="none" font-family="Arial" font-size="24px" font-style="normal" font-weight="normal" text-decoration="none" x="800" y="390"></text><g transform="translate(-78,-30) scale(1,1)"><rect fill="#C0C0C0" stroke="none" x="95" y="47" width="71.736328125" height="39" opacity="0.2"/></g><g transform="translate(-78,-30) scale(1,1)"><rect fill="#ffffff" stroke="none" x="88" y="40" width="71.736328125" height="39"/></g><g transform="translate(-78,-30) scale(1,1)"><path fill="none" stroke="#000000" d="M 88 40 L 159.736328125 40 L 159.736328125 79 L 88 79 L 88 40 Z Z" stroke-miterlimit="10"/></g><g transform="translate(-78,-30) scale(1,1)"><g><path fill="none" stroke="none"/><text fill="#000000" stroke="none" font-family="Arial" font-size="13px" font-style="normal" font-weight="bold" text-decoration="none" x="109.41455078125" y="58">User</text></g></g><g transform="translate(-78,-30) scale(1,1)"><path fill="none" stroke="#000000" d="M 124.5 80 L 124.5 239" stroke-miterlimit="10" stroke-dasharray="3"/></g><g transform="translate(-78,-30) scale(1,1)"><rect fill="#C0C0C0" stroke="none" x="239" y="47" width="104.24267578125" height="39" opacity="0.2"/></g><g transform="translate(-78,-30) scale(1,1)"><rect fill="#ffffff" stroke="none" x="232" y="40" width="104.24267578125" height="39"/></g><g transform="translate(-78,-30) scale(1,1)"><path fill="none" stroke="#000000" d="M 232 40 L 336.24267578125 40 L 336.24267578125 79 L 232 79 L 232 40 Z Z" stroke-miterlimit="10"/></g><g transform="translate(-78,-30) scale(1,1)"><g><path fill="none" stroke="none"/><text fill="#000000" stroke="none" font-family="Arial" font-size="13px" font-style="normal" font-weight="bold" text-decoration="none" x="241.5" y="58">InventoryItem</text></g></g><g transform="translate(-78,-30) scale(1,1)"><path fill="none" stroke="#000000" d="M 285.5 80 L 285.5 426" stroke-miterlimit="10" stroke-dasharray="3"/></g><g transform="translate(-78,-30) scale(1,1)"><rect fill="#C0C0C0" stroke="none" x="655" y="47" width="77.5126953125" height="39" opacity="0.2"/></g><g transform="translate(-78,-30) scale(1,1)"><rect fill="#ffffff" stroke="none" x="648" y="40" width="77.5126953125" height="39"/></g><g transform="translate(-78,-30) scale(1,1)"><path fill="none" stroke="#000000" d="M 648 40 L 725.5126953125 40 L 725.5126953125 79 L 648 79 L 648 40 Z Z" stroke-miterlimit="10"/></g><g transform="translate(-78,-30) scale(1,1)"><g><path fill="none" stroke="none"/><text fill="#000000" stroke="none" font-family="Arial" font-size="13px" font-style="normal" font-weight="bold" text-decoration="none" x="657.5" y="58">Inventory</text></g></g><g transform="translate(-78,-30) scale(1,1)"><path fill="none" stroke="#000000" d="M 687.5 80 L 687.5 394" stroke-miterlimit="10" stroke-dasharray="3"/></g><g transform="translate(-78,-30) scale(1,1)"><rect fill="#C0C0C0" stroke="none" x="375" y="47" width="111.47265625" height="39" opacity="0.2"/></g><g transform="translate(-78,-30) scale(1,1)"><rect fill="#ffffff" stroke="none" x="368" y="40" width="111.47265625" height="39"/></g><g transform="translate(-78,-30) scale(1,1)"><path fill="none" stroke="#000000" d="M 368 40 L 479.47265625 40 L 479.47265625 79 L 368 79 L 368 40 Z Z" stroke-miterlimit="10"/></g><g transform="translate(-78,-30) scale(1,1)"><g><path fill="none" stroke="none"/><text fill="#000000" stroke="none" font-family="Arial" font-size="13px" font-style="normal" font-weight="bold" text-decoration="none" x="377.5" y="58">InventoryItem2</text></g></g><g transform="translate(-78,-30) scale(1,1)"><path fill="none" stroke="#000000" d="M 424.5 80 L 424.5 362" stroke-miterlimit="10" stroke-dasharray="3"/></g><g transform="translate(-78,-30) scale(1,1)"><rect fill="#C0C0C0" stroke="none" x="847" y="47" width="123.7744140625" height="39" opacity="0.2"/></g><g transform="translate(-78,-30) scale(1,1)"><rect fill="#ffffff" stroke="none" x="840" y="40" width="123.7744140625" height="39"/></g><g transform="translate(-78,-30) scale(1,1)"><path fill="none" stroke="#000000" d="M 840 40 L 963.7744140625 40 L 963.7744140625 79 L 840 79 L 840 40 Z Z" stroke-miterlimit="10"/></g><g transform="translate(-78,-30) scale(1,1)"><g><path fill="none" stroke="none"/><text fill="#000000" stroke="none" font-family="Arial" font-size="13px" font-style="normal" font-weight="bold" text-decoration="none" x="849.5" y="58">InventoryService</text></g></g><g transform="translate(-78,-30) scale(1,1)"><path fill="none" stroke="#000000" d="M 902.5 80 L 902.5 426" stroke-miterlimit="10" stroke-dasharray="3"/></g><g transform="translate(-78,-30) scale(1,1)"><path fill="none" stroke="#000000" d="M 124 97 L 278 97" stroke-miterlimit="10"/></g><g transform="translate(-78,-30) scale(1,1)"><path fill="#000000" stroke="none" d="M 267.83732514237585 101.20951775601598 L 278 97 L 267.83732514237585 92.79048224398402"/></g><g transform="translate(-78,-30) scale(1,1)"><path fill="none" stroke="#000000" d="M 267.83732514237585 101.20951775601598 L 278 97 L 267.83732514237585 92.79048224398402 L 267.83732514237585 101.20951775601598" stroke-miterlimit="10"/></g><g transform="translate(-78,-30) scale(1,1)"><g><path fill="none" stroke="none"/><text fill="#000000" stroke="none" font-family="Arial" font-size="13px" font-style="normal" font-weight="normal" text-decoration="none" x="163.3154296875" y="92">1 : Drag item</text></g></g><g transform="translate(-78,-30) scale(1,1)"><rect fill="#ffffff" stroke="none" x="278" y="97" width="13" height="28"/></g><g transform="translate(-78,-30) scale(1,1)"><path fill="none" stroke="#000000" d="M 278 97 L 291 97 L 291 125 L 278 125 L 278 97 Z Z" stroke-miterlimit="10"/></g><g transform="translate(-78,-30) scale(1,1)"><path fill="none" stroke="#000000" d="M 285 144 L 680 144" stroke-miterlimit="10"/></g><g transform="translate(-78,-30) scale(1,1)"><path fill="#000000" stroke="none" d="M 669.8373251423759 148.209517756016 L 680 144 L 669.8373251423758 139.790482243984"/></g><g transform="translate(-78,-30) scale(1,1)"><path fill="none" stroke="#000000" d="M 669.8373251423759 148.209517756016 L 680 144 L 669.8373251423758 139.790482243984 L 669.8373251423759 148.209517756016" stroke-miterlimit="10"/></g><g transform="translate(-78,-30) scale(1,1)"><g><path fill="none" stroke="none"/><text fill="#000000" stroke="none" font-family="Arial" font-size="13px" font-style="normal" font-weight="normal" text-decoration="none" x="433.5" y="139">2 : OnDragBegin</text></g></g><g transform="translate(-78,-30) scale(1,1)"><rect fill="#ffffff" stroke="none" x="680" y="144" width="13" height="28"/></g><g transform="translate(-78,-30) scale(1,1)"><path fill="none" stroke="#000000" d="M 680 144 L 693 144 L 693 172 L 680 172 L 680 144 Z Z" stroke-miterlimit="10"/></g><g transform="translate(-78,-30) scale(1,1)"><path fill="none" stroke="#000000" d="M 124 188 L 417 188" stroke-miterlimit="10"/></g><g transform="translate(-78,-30) scale(1,1)"><path fill="#000000" stroke="none" d="M 406.83732514237585 192.209517756016 L 417 188 L 406.83732514237585 183.790482243984"/></g><g transform="translate(-78,-30) scale(1,1)"><path fill="none" stroke="#000000" d="M 406.83732514237585 192.209517756016 L 417 188 L 406.83732514237585 183.790482243984 L 406.83732514237585 192.209517756016" stroke-miterlimit="10"/></g><g transform="translate(-78,-30) scale(1,1)"><g><path fill="none" stroke="none"/><text fill="#000000" stroke="none" font-family="Arial" font-size="13px" font-style="normal" font-weight="normal" text-decoration="none" x="175.95361328125" y="182">3 : Drop Item</text></g></g><g transform="translate(-78,-30) scale(1,1)"><rect fill="#ffffff" stroke="none" x="417" y="188" width="13" height="28"/></g><g transform="translate(-78,-30) scale(1,1)"><path fill="none" stroke="#000000" d="M 417 188 L 430 188 L 430 216 L 417 216 L 417 188 Z Z" stroke-miterlimit="10"/></g><g transform="translate(-78,-30) scale(1,1)"><path fill="none" stroke="#000000" d="M 424 224 L 680 224" stroke-miterlimit="10"/></g><g transform="translate(-78,-30) scale(1,1)"><path fill="#000000" stroke="none" d="M 669.8373251423759 228.209517756016 L 680 224 L 669.8373251423758 219.790482243984"/></g><g transform="translate(-78,-30) scale(1,1)"><path fill="none" stroke="#000000" d="M 669.8373251423759 228.209517756016 L 680 224 L 669.8373251423758 219.790482243984 L 669.8373251423759 228.209517756016" stroke-miterlimit="10"/></g><g transform="translate(-78,-30) scale(1,1)"><g><path fill="none" stroke="none"/><text fill="#000000" stroke="none" font-family="Arial" font-size="13px" font-style="normal" font-weight="normal" text-decoration="none" x="505.5" y="219">4 : Get dragItem</text></g></g><g transform="translate(-78,-30) scale(1,1)"><rect fill="#ffffff" stroke="none" x="680" y="224" width="13" height="28"/></g><g transform="translate(-78,-30) scale(1,1)"><path fill="none" stroke="#000000" d="M 680 224 L 693 224 L 693 252 L 680 252 L 680 224 Z Z" stroke-miterlimit="10"/></g><g transform="translate(-78,-30) scale(1,1)"><path fill="none" stroke="#000000" d="M 680 250 L 424 250" stroke-miterlimit="10" stroke-dasharray="3"/></g><g transform="translate(-78,-30) scale(1,1)"><path fill="none" stroke="#000000" d="M 434.16267485762415 245.790482243984 L 424 250 L 434.16267485762415 254.209517756016" stroke-miterlimit="10"/></g><g transform="translate(-78,-30) scale(1,1)"><g><path fill="none" stroke="none"/><text fill="#000000" stroke="none" font-family="Arial" font-size="13px" font-style="normal" font-weight="normal" text-decoration="none" x="516.5" y="265">5 : dragitem</text></g></g><g transform="translate(-78,-30) scale(1,1)"><path fill="none" stroke="#000000" d="M 424 296 L 895 296" stroke-miterlimit="10"/></g><g transform="translate(-78,-30) scale(1,1)"><path fill="#000000" stroke="none" d="M 884.8373251423759 300.209517756016 L 895 296 L 884.8373251423758 291.790482243984"/></g><g transform="translate(-78,-30) scale(1,1)"><path fill="none" stroke="#000000" d="M 884.8373251423759 300.209517756016 L 895 296 L 884.8373251423758 291.790482243984 L 884.8373251423759 300.209517756016" stroke-miterlimit="10"/></g><g transform="translate(-78,-30) scale(1,1)"><g><path fill="none" stroke="none"/><text fill="#000000" stroke="none" font-family="Arial" font-size="13px" font-style="normal" font-weight="normal" text-decoration="none" x="502.5" y="290">6 : AddToInventory</text></g></g><g transform="translate(-78,-30) scale(1,1)"><rect fill="#ffffff" stroke="none" x="895" y="296" width="13" height="28"/></g><g transform="translate(-78,-30) scale(1,1)"><path fill="none" stroke="#000000" d="M 895 296 L 908 296 L 908 324 L 895 324 L 895 296 Z Z" stroke-miterlimit="10"/></g><g transform="translate(-78,-30) scale(1,1)"><path fill="none" stroke="#000000" d="M 424 320 L 680 320" stroke-miterlimit="10"/></g><g transform="translate(-78,-30) scale(1,1)"><path fill="#000000" stroke="none" d="M 669.8373251423759 324.209517756016 L 680 320 L 669.8373251423758 315.790482243984"/></g><g transform="translate(-78,-30) scale(1,1)"><path fill="none" stroke="#000000" d="M 669.8373251423759 324.209517756016 L 680 320 L 669.8373251423758 315.790482243984 L 669.8373251423759 324.209517756016" stroke-miterlimit="10"/></g><g transform="translate(-78,-30) scale(1,1)"><g><path fill="none" stroke="none"/><text fill="#000000" stroke="none" font-family="Arial" font-size="13px" font-style="normal" font-weight="normal" text-decoration="none" x="510.5" y="315">7 : onDragEnd</text></g></g><g transform="translate(-78,-30) scale(1,1)"><rect fill="#ffffff" stroke="none" x="680" y="320" width="13" height="28"/></g><g transform="translate(-78,-30) scale(1,1)"><path fill="none" stroke="#000000" d="M 680 320 L 693 320 L 693 348 L 680 348 L 680 320 Z Z" stroke-miterlimit="10"/></g><g transform="translate(-78,-30) scale(1,1)"><path fill="none" stroke="#000000" d="M 687 352 L 291 352" stroke-miterlimit="10"/></g><g transform="translate(-78,-30) scale(1,1)"><path fill="#000000" stroke="none" d="M 301.16267485762415 347.790482243984 L 291 352 L 301.16267485762415 356.209517756016"/></g><g transform="translate(-78,-30) scale(1,1)"><path fill="none" stroke="#000000" d="M 301.16267485762415 347.790482243984 L 291 352 L 301.16267485762415 356.209517756016 L 301.16267485762415 347.790482243984" stroke-miterlimit="10"/></g><g transform="translate(-78,-30) scale(1,1)"><g><path fill="none" stroke="none"/><text fill="#000000" stroke="none" font-family="Arial" font-size="13px" font-style="normal" font-weight="normal" text-decoration="none" x="451.029541015625" y="367">8 : eraseSelf</text></g></g><g transform="translate(-78,-30) scale(1,1)"><rect fill="#ffffff" stroke="none" x="278" y="352" width="13" height="28"/></g><g transform="translate(-78,-30) scale(1,1)"><path fill="none" stroke="#000000" d="M 278 352 L 291 352 L 291 380 L 278 380 L 278 352 Z Z" stroke-miterlimit="10"/></g><g transform="translate(-78,-30) scale(1,1)"><path fill="none" stroke="#000000" d="M 285 384 L 895 384" stroke-miterlimit="10"/></g><g transform="translate(-78,-30) scale(1,1)"><path fill="#000000" stroke="none" d="M 884.8373251423759 388.209517756016 L 895 384 L 884.8373251423758 379.790482243984"/></g><g transform="translate(-78,-30) scale(1,1)"><path fill="none" stroke="#000000" d="M 884.8373251423759 388.209517756016 L 895 384 L 884.8373251423758 379.790482243984 L 884.8373251423759 388.209517756016" stroke-miterlimit="10"/></g><g transform="translate(-78,-30) scale(1,1)"><g><path fill="none" stroke="none"/><text fill="#000000" stroke="none" font-family="Arial" font-size="13px" font-style="normal" font-weight="normal" text-decoration="none" x="550.5" y="379">9 : deleteItem</text></g></g><g transform="translate(-78,-30) scale(1,1)"><rect fill="#ffffff" stroke="none" x="895" y="384" width="13" height="28"/></g><g transform="translate(-78,-30) scale(1,1)"><path fill="none" stroke="#000000" d="M 895 384 L 908 384 L 908 412 L 895 412 L 895 384 Z Z" stroke-miterlimit="10"/></g></g></svg>